<?xml version="1.0" standalone="no"?>
<!DOCTYPE svg PUBLIC "-//W3C//DTD SVG 20010904//EN"
 "http://www.w3.org/TR/2001/REC-SVG-20010904/DTD/svg10.dtd">
<svg version="1.0" xmlns="http://www.w3.org/2000/svg"
 width="559.000000pt" height="559.000000pt" viewBox="0 0 559.000000 559.000000"
 preserveAspectRatio="xMidYMid meet">
<metadata>
Created by potrace 1.11, written by Peter Selinger 2001-2013
</metadata>
<g transform="translate(0.000000,559.000000) scale(0.100000,-0.100000)"
fill="#000000" stroke="none">
<path d="M1928 5585 c-2 -1 -38 -5 -80 -8 -163 -11 -275 -102 -318 -257 -9
-31 -13 -142 -14 -357 -1 -235 -4 -315 -13 -325 -19 -18 -19 -788 0 -788 11 0
14 -33 13 -160 0 -125 -3 -160 -13 -160 -19 0 -19 -366 0 -373 11 -4 13 -256
12 -1388 0 -1110 2 -1399 13 -1458 30 -170 119 -263 282 -296 45 -9 1705 -14
1871 -5 112 6 133 10 191 37 106 50 156 113 185 233 10 44 13 372 13 1620 0
1028 4 1566 10 1568 13 5 14 369 0 374 -6 2 -10 256 -10 708 -1 747 -2 755
-49 848 -31 62 -78 110 -133 138 -26 13 -49 24 -50 23 -3 -1 -46 6 -108 17
-34 6 -1795 15 -1802 9z"/>
</g>
</svg>
